2015026_C4_04_grf
version=1
nRows=34
nColumns=19
inDegrees=no
endheader
time	ground_force_1_vx	ground_force_1_vy	ground_force_1_vz	ground_force_1_px	ground_force_1_py	ground_force_1_pz	ground_force_1_mx	ground_force_1_my	ground_force_1_mz	ground_force_2_vx	ground_force_2_vy	ground_force_2_vz	ground_force_2_px	ground_force_2_py	ground_force_2_pz	ground_force_2_mx	ground_force_2_my	ground_force_2_mz
      0.80000000	      0.00000000	      0.00000000	      0.00000000	      0.00000000	      0.00000000	      0.00000000	      0.00000000	      0.00000000	      0.00000000	    -14.76941444	    367.96955764	    -19.60747689	      0.80190251	      0.00000000	     -0.15656569	      0.00000000	     -0.08525719	     -0.00000000
      0.80100000	      0.00000000	      0.00000000	      0.00000000	      0.00000000	      0.00000000	      0.00000000	      0.00000000	      0.00000000	      0.00000000	    -14.43701331	    367.18843319	    -19.50679719	      0.80213137	      0.00000000	     -0.15647517	      0.00000000	     -0.07826456	     -0.00000000
      0.80200000	      0.00000000	      0.00000000	      0.00000000	      0.00000000	      0.00000000	      0.00000000	      0.00000000	      0.00000000	      0.00000000	    -14.10694886	    366.42983928	    -19.40734126	      0.80236144	      0.00000000	     -0.15638466	      0.00000000	     -0.07111626	     -0.00000000
      0.80300000	      0.00000000	      0.00000000	      0.00000000	      0.00000000	      0.00000000	      0.00000000	      0.00000000	      0.00000000	      0.00000000	    -13.77974031	    365.69900438	    -19.30941734	      0.80259302	      0.00000000	     -0.15629418	      0.00000000	     -0.06377230	      0.00000000
      0.80400000	      0.00000000	      0.00000000	      0.00000000	      0.00000000	      0.00000000	      0.00000000	      0.00000000	      0.00000000	      0.00000000	    -13.45476694	    364.99007419	    -19.21271905	      0.80282580	      0.00000000	     -0.15620371	     -0.00000000	     -0.05627173	      0.00000000
      0.80500000	      0.00000000	      0.00000000	      0.00000000	      0.00000000	      0.00000000	      0.00000000	      0.00000000	      0.00000000	      0.00000000	    -13.13252794	    364.30810764	    -19.11756303	      0.80306007	      0.00000000	     -0.15611324	     -0.00000000	     -0.04857644	      0.00000000
      0.80600000	      0.00000000	      0.00000000	      0.00000000	      0.00000000	      0.00000000	      0.00000000	      0.00000000	      0.00000000	      0.00000000	    -12.81242725	    363.64741996	    -19.02365685	      0.80329554	      0.00000000	     -0.15602278	      0.00000000	     -0.04072692	     -0.00000000
      0.80700000	      0.00000000	      0.00000000	      0.00000000	      0.00000000	      0.00000000	      0.00000000	      0.00000000	      0.00000000	      0.00000000	    -12.49493891	    363.01295273	    -18.93132925	      0.80353250	      0.00000000	     -0.15593230	      0.00000000	     -0.03268673	     -0.00000000
      0.80800000	      0.00000000	      0.00000000	      0.00000000	      0.00000000	      0.00000000	      0.00000000	      0.00000000	      0.00000000	      0.00000000	    -12.17948459	    362.39919066	    -18.84028688	      0.80377065	      0.00000000	     -0.15584183	      0.00000000	     -0.02449765	      0.00000000
      0.80900000	      0.00000000	      0.00000000	      0.00000000	      0.00000000	      0.00000000	      0.00000000	      0.00000000	      0.00000000	      0.00000000	    -11.86649455	    361.81098409	    -18.75086129	      0.80401029	      0.00000000	     -0.15575137	      0.00000000	     -0.01612698	      0.00000000
      0.81000000	      0.00000000	      0.00000000	      0.00000000	      0.00000000	      0.00000000	      0.00000000	      0.00000000	      0.00000000	      0.00000000	    -11.55541278	    361.24298722	    -18.66273582	      0.80425114	      0.00000000	     -0.15566093	      0.00000000	     -0.00761521	      0.00000000
      0.81100000	      0.00000000	      0.00000000	      0.00000000	      0.00000000	      0.00000000	      0.00000000	      0.00000000	      0.00000000	      0.00000000	    -11.24663837	    360.69993302	    -18.57623644	      0.80449351	      0.00000000	     -0.15557051	      0.00000000	      0.00106630	      0.00000000
      0.81200000	      0.00000000	      0.00000000	      0.00000000	      0.00000000	      0.00000000	      0.00000000	      0.00000000	      0.00000000	      0.00000000	    -10.93964837	    360.17664522	    -18.49104092	      0.80473711	      0.00000000	     -0.15548012	     -0.00000000	      0.00987801	      0.00000000
      0.81300000	      0.00000000	      0.00000000	      0.00000000	      0.00000000	      0.00000000	      0.00000000	      0.00000000	      0.00000000	      0.00000000	    -10.63481299	    359.67784375	    -18.40748265	      0.80498227	      0.00000000	     -0.15538976	      0.00000000	      0.01884464	      0.00000000
      0.81400000	      0.00000000	      0.00000000	      0.00000000	      0.00000000	      0.00000000	      0.00000000	      0.00000000	      0.00000000	      0.00000000	    -10.33163909	    359.19846967	    -18.32523942	      0.80522868	      0.00000000	     -0.15529943	      0.00000000	      0.02792959	     -0.00000000
      0.81500000	      0.00000000	      0.00000000	      0.00000000	      0.00000000	      0.00000000	      0.00000000	      0.00000000	      0.00000000	      0.00000000	    -10.03045123	    358.74321684	    -18.24466698	      0.80547669	      0.00000000	     -0.15520914	      0.00000000	      0.03715427	     -0.00000000
      0.81600000	      0.00000000	      0.00000000	      0.00000000	      0.00000000	      0.00000000	      0.00000000	      0.00000000	      0.00000000	      0.00000000	     -9.73077212	    358.30710456	    -18.16545241	      0.80572601	      0.00000000	     -0.15511885	      0.00000000	      0.04648488	      0.00000000
      0.81700000	      0.00000000	      0.00000000	      0.00000000	      0.00000000	      0.00000000	      0.00000000	      0.00000000	      0.00000000	      0.00000000	     -9.43286903	    357.89472237	    -18.08797102	      0.80597702	      0.00000000	     -0.15502853	     -0.00000000	      0.05594016	      0.00000000
      0.81800000	      0.00000000	      0.00000000	      0.00000000	      0.00000000	      0.00000000	      0.00000000	      0.00000000	      0.00000000	      0.00000000	     -9.13629960	    357.50121996	    -18.01191084	      0.80622941	      0.00000000	     -0.15493817	      0.00000000	      0.06548983	     -0.00000000
      0.81900000	      0.00000000	      0.00000000	      0.00000000	      0.00000000	      0.00000000	      0.00000000	      0.00000000	      0.00000000	      0.00000000	     -8.84129712	    357.13112168	    -17.93767326	      0.80648356	      0.00000000	     -0.15484768	      0.00000000	      0.07515366	      0.00000000
      0.82000000	      0.00000000	      0.00000000	      0.00000000	      0.00000000	      0.00000000	      0.00000000	      0.00000000	      0.00000000	      0.00000000	     -8.54747277	    356.77964240	    -17.86494441	      0.80673913	      0.00000000	     -0.15475707	     -0.00000000	      0.08490665	     -0.00000000
      0.82100000	      0.00000000	      0.00000000	      0.00000000	      0.00000000	      0.00000000	      0.00000000	      0.00000000	      0.00000000	      0.00000000	     -8.25503515	    356.45131953	    -17.79416669	      0.80699649	      0.00000000	     -0.15466626	      0.00000000	      0.09477063	      0.00000000
      0.82200000	      0.00000000	      0.00000000	      0.00000000	      0.00000000	      0.00000000	      0.00000000	      0.00000000	      0.00000000	      0.00000000	     -7.96364248	    356.14148527	    -17.72501506	      0.80725530	      0.00000000	     -0.15457526	     -0.00000000	      0.10472402	     -0.00000000
      0.82300000	      0.00000000	      0.00000000	      0.00000000	      0.00000000	      0.00000000	      0.00000000	      0.00000000	      0.00000000	      0.00000000	     -7.67347496	    355.85463792	    -17.65798405	      0.80751591	      0.00000000	     -0.15448397	      0.00000000	      0.11479036	     -0.00000000
      0.82400000	      0.00000000	      0.00000000	      0.00000000	      0.00000000	      0.00000000	      0.00000000	      0.00000000	      0.00000000	      0.00000000	     -7.38422154	    355.58614880	    -17.59272814	      0.80777797	      0.00000000	     -0.15439241	      0.00000000	      0.12494742	      0.00000000
      0.82500000	      0.00000000	      0.00000000	      0.00000000	      0.00000000	      0.00000000	      0.00000000	      0.00000000	      0.00000000	      0.00000000	     -7.09602656	    355.34050316	    -17.52979308	      0.80804182	      0.00000000	     -0.15430045	      0.00000000	      0.13521882	      0.00000000
      0.82600000	      0.00000000	      0.00000000	      0.00000000	      0.00000000	      0.00000000	      0.00000000	      0.00000000	      0.00000000	      0.00000000	     -6.80860970	    355.11311144	    -17.46878773	      0.80830710	      0.00000000	     -0.15420815	      0.00000000	      0.14558276	     -0.00000000
      0.82700000	      0.00000000	      0.00000000	      0.00000000	      0.00000000	      0.00000000	      0.00000000	      0.00000000	      0.00000000	      0.00000000	     -6.52207714	    354.90840673	    -17.41028205	      0.80857413	      0.00000000	     -0.15411535	      0.00000000	      0.15606225	      0.00000000
      0.82800000	      0.00000000	      0.00000000	      0.00000000	      0.00000000	      0.00000000	      0.00000000	      0.00000000	      0.00000000	      0.00000000	     -6.23618066	    354.72182557	    -17.35384017	      0.80884255	      0.00000000	     -0.15402214	      0.00000000	      0.16663243	      0.00000000
      0.82900000	      0.00000000	      0.00000000	      0.00000000	      0.00000000	      0.00000000	      0.00000000	      0.00000000	      0.00000000	      0.00000000	     -5.95099130	    354.55782712	    -17.30006840	      0.80911269	      0.00000000	     -0.15392837	      0.00000000	      0.17731077	      0.00000000
      0.83000000	      0.00000000	      0.00000000	      0.00000000	      0.00000000	      0.00000000	      0.00000000	      0.00000000	      0.00000000	      0.00000000	     -5.66629739	    354.41184789	    -17.24850573	      0.80938418	      0.00000000	     -0.15383414	      0.00000000	      0.18806967	      0.00000000
      0.83100000	      0.00000000	      0.00000000	      0.00000000	      0.00000000	      0.00000000	      0.00000000	      0.00000000	      0.00000000	      0.00000000	     -5.38213155	    354.28836010	    -17.19980966	      0.80965736	      0.00000000	     -0.15373931	      0.00000000	      0.19891889	      0.00000000
      0.83200000	      0.00000000	      0.00000000	      0.00000000	      0.00000000	      0.00000000	      0.00000000	      0.00000000	      0.00000000	      0.00000000	     -5.09831682	    354.18286547	    -17.15349406	      0.80993186	      0.00000000	     -0.15364402	      0.00000000	      0.20983121	     -0.00000000
      0.83300000	      0.00000000	      0.00000000	      0.00000000	      0.00000000	      0.00000000	      0.00000000	      0.00000000	      0.00000000	      0.00000000	     -4.81485552	    354.09982316	    -17.11026486	      0.81020801	      0.00000000	     -0.15354815	     -0.00000000	      0.22081258	      0.00000000
